# Blender 3.6.2
# www.blender.org
mtllib fry.mtl
o Cube
v -1.222222 -0.999303 4.192412
v -1.222222 1.000697 4.192412
v 0.777778 -0.999303 4.192412
v 0.777778 1.000697 4.192412
v -0.439968 -0.999303 2.244461
v -0.439968 1.000697 2.244461
v 1.560032 -0.999303 2.244461
v 1.560032 1.000697 2.244461
v -1.682585 -0.999303 0.078863
v -1.682585 1.000697 0.078863
v 0.317415 -0.999303 0.078863
v 0.317415 1.000697 0.078863
v -0.433004 -1.002787 -2.215480
v -0.433004 0.997213 -2.215480
v 1.566996 -1.002787 -2.215480
v 1.566996 0.997213 -2.215480
v -1.222222 -0.999303 -4.300258
v -1.222222 1.000697 -4.300258
v 0.777778 -0.999303 -4.300258
v 0.777778 1.000697 -4.300258
vn -0.0000 -0.0000 1.0000
vn 0.8674 -0.0000 -0.4977
vn 0.9280 -0.0000 0.3727
vn -0.0000 -1.0000 -0.0000
vn -0.0000 1.0000 -0.0000
vn -0.9280 -0.0000 -0.3727
vn 0.8782 -0.0000 0.4783
vn -0.8674 -0.0000 0.4977
vn -0.0000 1.0000 0.0017
vn -0.0000 -1.0000 0.0015
vn -0.0000 1.0000 -0.0015
vn -0.8782 -0.0000 -0.4783
vn -0.0000 -0.0000 -1.0000
vn -0.9352 -0.0000 0.3540
vn 0.9352 -0.0000 -0.3540
vn -0.0000 -1.0000 -0.0017
vt 0.375000 0.250000
vt 0.375000 0.500000
vt 0.625000 0.500000
vt 0.625000 0.250000
s 0
f 1/1/1 3/2/1 4/3/1 2/4/1
f 8/3/2 7/2/2 11/2/2 12/3/2
f 4/3/3 3/2/3 7/2/3 8/3/3
f 3/2/4 1/1/4 5/1/4 7/2/4
f 2/4/5 4/3/5 8/3/5 6/4/5
f 1/1/6 2/4/6 6/4/6 5/1/6
f 12/3/7 11/2/7 15/2/7 16/3/7
f 7/2/4 5/1/4 9/1/4 11/2/4
f 6/4/5 8/3/5 12/3/5 10/4/5
f 5/1/8 6/4/8 10/4/8 9/1/8
f 14/4/9 16/3/9 20/3/9 18/4/9
f 11/2/10 9/1/10 13/1/10 15/2/10
f 10/4/11 12/3/11 16/3/11 14/4/11
f 9/1/12 10/4/12 14/4/12 13/1/12
f 17/1/13 18/4/13 20/3/13 19/2/13
f 13/1/14 14/4/14 18/4/14 17/1/14
f 16/3/15 15/2/15 19/2/15 20/3/15
f 15/2/16 13/1/16 17/1/16 19/2/16
